name rise38.3101peak57.3503fall81.6963.mot
datacolumns 19
datarows 18
range 4.32165800000000 4.34998700000000
endheader
time	ground_force1_vx	ground_force1_vy	ground_force1_vz	ground_force1_px	ground_force1_py	ground_force1_pz	ground_force2_vx	ground_force2_vy	ground_force2_vz	ground_force2_px	ground_force2_py	ground_force2_pz	ground_torque1_x	ground_torque1_y	ground_torque1_z	ground_torque2_x	ground_torque2_y	ground_torque2_z	
4.32165800000000	78.20668000000001	787.42886099999998	55.26034200000000	0.40205600000000	0.00000000000000	0.10223400000000	0.00000000000000	0.00000000000000	0.00000000000000	0.00000000000000	0.00000000000000	0.00000000000000	0.00000000000000	26.68013800000000	0.00000000000000	0.00000000000000	0.00000000000000	0.00000000000000	
4.32332000000000	77.23184000000001	788.26668700000005	55.30587200000000	0.40125300000000	0.00000000000000	0.10219000000000	0.00000000000000	0.00000000000000	0.00000000000000	0.00000000000000	0.00000000000000	0.00000000000000	0.00000000000000	26.77046900000000	0.00000000000000	0.00000000000000	0.00000000000000	0.00000000000000	
4.32499200000000	76.25323299999999	788.97033199999998	55.34921300000000	0.40044900000000	0.00000000000000	0.10214700000000	0.00000000000000	0.00000000000000	0.00000000000000	0.00000000000000	0.00000000000000	0.00000000000000	0.00000000000000	26.86043400000000	0.00000000000000	0.00000000000000	0.00000000000000	0.00000000000000	
4.32666000000000	75.27215900000000	789.54184899999996	55.39050700000000	0.39964200000000	0.00000000000000	0.10210400000000	0.00000000000000	0.00000000000000	0.00000000000000	0.00000000000000	0.00000000000000	0.00000000000000	0.00000000000000	26.94999800000000	0.00000000000000	0.00000000000000	0.00000000000000	0.00000000000000	
4.32832100000000	74.28983900000000	789.98335299999997	55.42981600000000	0.39883300000000	0.00000000000000	0.10206200000000	0.00000000000000	0.00000000000000	0.00000000000000	0.00000000000000	0.00000000000000	0.00000000000000	0.00000000000000	27.03907200000000	0.00000000000000	0.00000000000000	0.00000000000000	0.00000000000000	
4.32998400000000	73.30741999999999	790.29702499999996	55.46712800000000	0.39802000000000	0.00000000000000	0.10202000000000	0.00000000000000	0.00000000000000	0.00000000000000	0.00000000000000	0.00000000000000	0.00000000000000	0.00000000000000	27.12751300000000	0.00000000000000	0.00000000000000	0.00000000000000	0.00000000000000	
4.33165100000000	72.32597000000000	790.48511299999996	55.50235700000000	0.39720300000000	0.00000000000000	0.10197900000000	0.00000000000000	0.00000000000000	0.00000000000000	0.00000000000000	0.00000000000000	0.00000000000000	0.00000000000000	27.21512900000000	0.00000000000000	0.00000000000000	0.00000000000000	0.00000000000000	
4.33332200000000	71.34648600000000	790.54993700000000	55.53535400000000	0.39638100000000	0.00000000000000	0.10193800000000	0.00000000000000	0.00000000000000	0.00000000000000	0.00000000000000	0.00000000000000	0.00000000000000	0.00000000000000	27.30168400000000	0.00000000000000	0.00000000000000	0.00000000000000	0.00000000000000	
4.33499200000000	70.36988700000001	790.49389299999996	55.56590400000000	0.39555300000000	0.00000000000000	0.10189800000000	0.00000000000000	0.00000000000000	0.00000000000000	0.00000000000000	0.00000000000000	0.00000000000000	0.00000000000000	27.38689700000000	0.00000000000000	0.00000000000000	0.00000000000000	0.00000000000000	
4.33665100000000	69.39702300000000	790.31945099999996	55.59373800000000	0.39471900000000	0.00000000000000	0.10185800000000	0.00000000000000	0.00000000000000	0.00000000000000	0.00000000000000	0.00000000000000	0.00000000000000	0.00000000000000	27.47045300000000	0.00000000000000	0.00000000000000	0.00000000000000	0.00000000000000	
4.33832000000000	68.42867200000001	790.02916100000004	55.61853400000000	0.39387600000000	0.00000000000000	0.10181900000000	0.00000000000000	0.00000000000000	0.00000000000000	0.00000000000000	0.00000000000000	0.00000000000000	0.00000000000000	27.55199900000000	0.00000000000000	0.00000000000000	0.00000000000000	0.00000000000000	
4.33998600000000	67.46554500000001	789.62565300000006	55.63992500000000	0.39302500000000	0.00000000000000	0.10178000000000	0.00000000000000	0.00000000000000	0.00000000000000	0.00000000000000	0.00000000000000	0.00000000000000	0.00000000000000	27.63115700000000	0.00000000000000	0.00000000000000	0.00000000000000	0.00000000000000	
4.34165000000000	66.50828600000000	789.11164099999996	55.65750400000000	0.39216500000000	0.00000000000000	0.10174200000000	0.00000000000000	0.00000000000000	0.00000000000000	0.00000000000000	0.00000000000000	0.00000000000000	0.00000000000000	27.70752200000000	0.00000000000000	0.00000000000000	0.00000000000000	0.00000000000000	
4.34331700000000	65.55747500000000	788.48991899999999	55.67083100000000	0.39129300000000	0.00000000000000	0.10170500000000	0.00000000000000	0.00000000000000	0.00000000000000	0.00000000000000	0.00000000000000	0.00000000000000	0.00000000000000	27.78066800000000	0.00000000000000	0.00000000000000	0.00000000000000	0.00000000000000	
4.34498900000000	64.61363500000000	787.76336400000002	55.67943900000000	0.39041000000000	0.00000000000000	0.10166800000000	0.00000000000000	0.00000000000000	0.00000000000000	0.00000000000000	0.00000000000000	0.00000000000000	0.00000000000000	27.85015700000000	0.00000000000000	0.00000000000000	0.00000000000000	0.00000000000000	
4.34665600000000	63.67722900000000	786.93493799999999	55.68283800000000	0.38951400000000	0.00000000000000	0.10163100000000	0.00000000000000	0.00000000000000	0.00000000000000	0.00000000000000	0.00000000000000	0.00000000000000	0.00000000000000	27.91553700000000	0.00000000000000	0.00000000000000	0.00000000000000	0.00000000000000	
4.34832100000000	62.74866500000000	786.00768400000004	55.68052600000000	0.38860400000000	0.00000000000000	0.10159500000000	0.00000000000000	0.00000000000000	0.00000000000000	0.00000000000000	0.00000000000000	0.00000000000000	0.00000000000000	27.97635000000000	0.00000000000000	0.00000000000000	0.00000000000000	0.00000000000000	
4.34998700000000	61.82830200000000	784.98472500000003	55.67199100000000	0.38767900000000	0.00000000000000	0.10155900000000	0.00000000000000	0.00000000000000	0.00000000000000	0.00000000000000	0.00000000000000	0.00000000000000	0.00000000000000	28.03213800000000	0.00000000000000	0.00000000000000	0.00000000000000	0.00000000000000	
